<?xml version="1.0" encoding="UTF-8" standalone="no"?>
<!DOCTYPE svg PUBLIC "-//W3C//DTD SVG 1.1//EN" "http://www.w3.org/Graphics/SVG/1.1/DTD/svg11.dtd">
<svg width="100%" height="100%" viewBox="0 0 237 237" version="1.1" xmlns="http://www.w3.org/2000/svg" xmlns:xlink="http://www.w3.org/1999/xlink" xml:space="preserve" xmlns:serif="http://www.serif.com/" style="fill-rule:evenodd;clip-rule:evenodd;stroke-linejoin:round;stroke-miterlimit:2;">
    <g transform="matrix(1.64314,0,0,1.64314,20.2816,83.0743)">
        <path d="M0,42.646C4.015,43.403 8.167,44.513 12.194,45.731C8.233,48.18 4.27,50.618 0.297,53.029C-1.827,54.318 -0.321,57.389 1.973,56.899C6.413,55.947 10.76,53.955 14.98,51.58C14.852,52.185 14.709,52.777 14.543,53.299C13.683,56 13.859,58.866 13.121,61.548C12.041,65.477 18.234,67.009 19.256,63.062C20.293,59.042 20.342,54.62 21.106,50.496C21.225,49.853 21.437,48.761 21.549,47.594C23.72,46.21 25.849,44.819 27.932,43.512C27.597,46.551 27.347,49.603 27.177,52.686C26.936,57.082 33.864,56.987 34.013,52.584C34.135,48.908 34.454,45.228 34.613,41.544C34.642,40.888 34.836,40.063 34.993,39.209C41.805,35.067 48.579,30.85 55.362,26.675C55.349,34.992 55.424,43.325 55.526,51.661C54.526,52.775 53.766,54.098 52.373,55.286C49.729,57.542 46.974,59.616 44.396,61.888C42.774,63.318 44.476,66.128 46.49,65.488C49.797,64.436 52.85,62.573 55.639,60.525C55.666,62.629 55.692,64.734 55.718,66.838C53.772,68.358 52.393,70.511 50.382,72.095C47.576,74.302 45.287,77.406 43.554,80.507C42.413,82.544 45.223,84.878 46.854,83.054C49.58,80.009 52.676,77.03 55.801,74.215C55.848,78.871 55.884,83.524 55.893,88.17C55.9,90.655 59.308,90.956 60.075,88.737C61.556,84.443 62.099,79.693 62.249,74.853C62.701,75.276 63.135,75.704 63.496,76.116C65.361,78.249 67.904,79.583 69.816,81.6C72.623,84.558 77.137,80.047 74.284,77.131C71.384,74.165 67.621,71.836 64.488,69.05C63.999,68.616 63.175,67.87 62.234,67.17C62.172,64.583 62.083,62.03 62.041,59.559C64.475,61.423 66.945,63.243 69.501,64.987C73.141,67.466 76.642,61.486 72.95,59.083C69.866,57.078 66.884,54.901 63.813,52.862C63.266,52.497 62.661,51.904 62.011,51.327C61.986,42.783 61.863,34.231 61.804,25.699C69.215,29.925 76.611,34.218 84.051,38.419C84.235,39.269 84.456,40.087 84.505,40.743C84.784,44.418 85.222,48.085 85.462,51.758C85.752,56.151 92.679,56.025 92.297,51.638C92.028,48.563 91.681,45.521 91.248,42.493C93.372,43.734 95.544,45.056 97.758,46.37C97.908,47.532 98.155,48.616 98.295,49.253C99.189,53.351 99.381,57.772 100.547,61.754C101.695,65.668 107.836,63.94 106.63,60.045C105.807,57.389 105.891,54.518 104.942,51.846C104.759,51.33 104.598,50.743 104.45,50.142C108.744,52.381 113.153,54.232 117.621,55.041C119.934,55.457 121.339,52.339 119.174,51.12C115.126,48.838 111.086,46.528 107.05,44.208C111.033,42.86 115.147,41.618 119.137,40.732C121.526,40.2 120.864,36.61 118.532,36.607C114.978,36.602 111.15,37.079 107.854,38.444C105.488,39.423 102.935,39.572 100.657,40.525C98.835,39.473 97.014,38.42 95.192,37.366C98.342,35.937 101.46,34.188 103.997,31.817C105.541,30.375 103.924,27.514 101.884,28.228C98.642,29.364 95.481,30.753 92.222,31.955C90.503,32.588 88.977,32.601 87.515,32.929C80.241,28.729 72.957,24.552 65.642,20.465C72.539,16.371 79.471,12.309 86.354,8.175C87.184,8.434 88.004,8.645 88.599,8.925C91.932,10.499 95.339,11.924 98.65,13.527C102.617,15.444 105.924,9.354 101.919,7.521C99.111,6.239 96.293,5.042 93.447,3.924C95.574,2.688 97.795,1.451 100.03,0.173C101.115,0.616 102.18,0.936 102.804,1.129C106.809,2.371 110.749,4.386 114.789,5.336C118.759,6.268 120.284,0.073 116.302,-0.798C113.585,-1.393 111.129,-2.881 108.338,-3.375C107.799,-3.471 107.208,-3.62 106.612,-3.788C110.678,-6.419 114.463,-9.341 117.37,-12.829C118.873,-14.633 116.855,-17.396 114.724,-16.114C110.744,-13.719 106.741,-11.348 102.733,-8.981C103.525,-13.11 104.474,-17.3 105.672,-21.205C106.388,-23.546 102.938,-24.742 101.783,-22.713C100.026,-19.625 98.554,-16.062 98.114,-12.521C97.8,-9.978 96.671,-7.685 96.375,-5.234C94.561,-4.168 92.747,-3.102 90.931,-2.037C91.242,-5.48 91.259,-9.057 90.447,-12.432C89.954,-14.487 86.668,-14.491 86.283,-12.363C85.673,-8.984 85.321,-5.549 84.759,-2.121C84.462,-0.311 83.719,1.025 83.283,2.462C76.097,6.685 68.928,10.927 61.818,15.239C61.882,7.273 61.988,-0.707 62.011,-8.682C62.661,-9.258 63.266,-9.852 63.813,-10.215C66.884,-12.255 69.866,-14.433 72.95,-16.438C76.642,-18.842 73.141,-24.822 69.501,-22.342C66.945,-20.598 64.475,-18.778 62.041,-16.915C62.083,-19.386 62.172,-21.939 62.235,-24.526C63.175,-25.226 63.999,-25.971 64.488,-26.405C67.621,-29.191 71.384,-31.521 74.284,-34.488C77.137,-37.403 72.623,-41.914 69.816,-38.955C67.904,-36.937 65.361,-35.605 63.496,-33.472C63.135,-33.06 62.701,-32.632 62.249,-32.208C62.099,-37.049 61.556,-41.799 60.075,-46.092C59.308,-48.31 55.9,-48.011 55.893,-45.525C55.884,-40.878 55.848,-36.226 55.801,-31.57C52.676,-34.384 49.58,-37.365 46.854,-40.41C45.223,-42.233 42.413,-39.9 43.554,-37.862C45.287,-34.762 47.576,-31.659 50.382,-29.45C52.393,-27.866 53.772,-25.714 55.718,-24.193C55.692,-22.089 55.666,-19.985 55.639,-17.881C52.85,-19.929 49.797,-21.791 46.49,-22.843C44.476,-23.484 42.774,-20.673 44.396,-19.245C46.974,-16.972 49.729,-14.896 52.373,-12.642C53.766,-11.454 54.526,-10.131 55.526,-9.017C55.43,-1.103 55.358,6.81 55.362,14.708C48.48,10.841 41.553,7.03 34.607,3.243C34.125,1.821 33.341,0.509 32.986,-1.292C32.312,-4.7 31.852,-8.121 31.131,-11.477C30.679,-13.593 27.396,-13.482 26.967,-11.413C26.265,-8.015 26.395,-4.441 26.819,-1.008C24.97,-2.015 23.122,-3.022 21.274,-4.03C20.9,-6.47 19.699,-8.725 19.303,-11.254C18.748,-14.781 17.163,-18.295 15.307,-21.326C14.088,-23.317 10.681,-22.011 11.471,-19.693C12.792,-15.829 13.875,-11.671 14.801,-7.569C10.718,-9.807 6.641,-12.048 2.585,-14.314C0.414,-15.525 -1.514,-12.702 0.048,-10.946C3.064,-7.553 6.941,-4.754 11.088,-2.255C10.498,-2.068 9.913,-1.9 9.377,-1.787C6.605,-1.204 4.198,0.363 1.499,1.045C-2.451,2.043 -0.729,8.184 3.21,7.128C7.218,6.047 11.09,3.909 15.052,2.538C15.67,2.324 16.724,1.97 17.794,1.492C20.07,2.698 22.33,3.864 24.495,5.031C21.686,6.239 18.908,7.525 16.142,8.901C12.2,10.859 15.7,16.838 19.602,14.796C22.862,13.088 26.219,11.55 29.502,9.873C30.087,9.573 30.9,9.336 31.721,9.051C38.734,12.962 45.795,16.8 52.821,20.671C45.64,24.991 38.493,29.399 31.357,33.831C29.885,33.55 28.358,33.587 26.62,33.009C23.324,31.913 20.12,30.626 16.845,29.595C14.781,28.946 13.258,31.858 14.848,33.25C17.457,35.538 20.631,37.187 23.825,38.513C22.039,39.625 20.251,40.735 18.464,41.845C16.156,40.966 13.601,40.899 11.202,39.997C7.862,38.739 4.023,38.384 0.473,38.503C-1.859,38.582 -2.407,42.191 0,42.646" style="fill:white;fill-rule:nonzero;"/>
    </g>
</svg>
